<?xml version="1.0" encoding="UTF-8" standalone="no"?>
<!DOCTYPE svg PUBLIC "-//W3C//DTD SVG 1.1//EN" "http://www.w3.org/Graphics/SVG/1.1/DTD/svg11.dtd">
<svg version="1.1" xmlns="http://www.w3.org/2000/svg" xmlns:xlink="http://www.w3.org/1999/xlink" preserveAspectRatio="xMidYMid meet" viewBox="0 0 640 640" width="640" height="640"><defs><path d="M182.61 229.82C182.61 266.87 218.07 298.17 260.02 298.17C301.97 298.17 337.43 266.87 337.43 229.82C337.43 192.78 301.97 161.48 260.02 161.48C218.07 161.48 182.61 192.78 182.61 229.82Z" id="b1zc7427E8"></path><path d="M399.71 70.35C357.8 33.34 334.52 12.79 329.87 8.68C325.04 4.39 318.49 2 311.62 2C301.3 2 218.74 2 208.42 2C201.55 2 195 4.39 190.17 8.68C185.52 12.79 162.24 33.34 120.33 70.35C80.29 70.35 58.05 70.35 53.6 70.35C25.14 70.35 2 90.78 2 115.91C2 140.97 2 341.45 2 366.51C2 391.64 25.14 412.08 53.6 412.08C94.89 412.08 425.15 412.08 466.44 412.08C494.9 412.08 518.04 391.64 518.04 366.51C518.04 341.45 518.04 140.97 518.04 115.91C518.04 90.78 494.9 70.35 466.44 70.35C457.54 70.35 435.3 70.35 399.71 70.35ZM131.01 229.82C131.01 168.08 190.1 115.91 260.02 115.91C329.94 115.91 389.03 168.08 389.03 229.82C389.03 291.56 329.94 343.73 260.02 343.73C190.1 343.73 131.01 291.56 131.01 229.82Z" id="i6yqxcYd2i"></path></defs><g><g><g><use xlink:href="#b1zc7427E8" opacity="1" fill="#ffffff" fill-opacity="1"></use><g><use xlink:href="#b1zc7427E8" opacity="1" fill-opacity="0" stroke="#000000" stroke-width="1" stroke-opacity="0"></use></g></g><g><use xlink:href="#i6yqxcYd2i" opacity="1" fill="#ffffff" fill-opacity="1"></use><g><use xlink:href="#i6yqxcYd2i" opacity="1" fill-opacity="0" stroke="#000000" stroke-width="1" stroke-opacity="0"></use></g></g></g></g></svg>