<?xml version="1.0" encoding="UTF-8" standalone="no"?>
<!DOCTYPE svg PUBLIC "-//W3C//DTD SVG 1.1//EN" "http://www.w3.org/Graphics/SVG/1.1/DTD/svg11.dtd">
<svg version="1.1" xmlns="http://www.w3.org/2000/svg" xmlns:xlink="http://www.w3.org/1999/xlink" preserveAspectRatio="xMidYMid meet" viewBox="0 0 640 640" width="640" height="640"><defs><path d="M243.2 313.05C246.57 306.43 254.67 303.79 261.29 307.16C295.78 324.69 336.81 324.75 371.05 307.32C377.67 303.95 385.77 306.59 389.14 313.21C392.51 319.83 389.88 327.93 383.26 331.3C362.37 341.94 339.42 347.25 316.44 347.25C293.34 347.25 270.21 341.88 249.09 331.14C242.47 327.78 239.83 319.68 243.2 313.05ZM65.02 404.04L65.02 64.29L567.63 64.29C567.63 186.21 567.63 253.95 567.63 267.5C567.63 274.93 573.66 280.95 581.09 280.95C588.52 280.95 594.54 274.93 594.54 267.5C594.54 245.83 594.54 72.5 594.54 50.83C594.54 43.4 588.52 37.38 581.09 37.38C528.13 37.38 104.52 37.38 51.56 37.38C44.13 37.38 38.11 43.4 38.11 50.83C38.11 87.5 38.11 380.83 38.11 417.49C38.11 424.92 44.13 430.95 51.56 430.95C85.6 430.95 357.92 430.95 391.96 430.95C399.39 430.95 405.41 424.92 405.41 417.49C405.41 410.06 399.39 404.04 391.96 404.04C348.37 404.04 239.39 404.04 65.02 404.04ZM285.01 488.91C286.49 494.73 291.77 499.03 298.04 499.03C301.7 499.03 330.95 499.03 334.61 499.03C340.89 499.03 346.16 494.73 347.65 488.91C352.08 488.91 387.53 488.91 391.96 488.91C399.39 488.91 405.41 482.89 405.41 475.46C405.41 468.03 399.39 462.01 391.96 462.01C357.01 462.01 77.37 462.01 42.42 462.01C19.03 462.01 0 481.04 0 504.43C0 527.82 19.03 546.85 42.42 546.85C77.37 546.85 357 546.85 391.96 546.85C399.39 546.85 405.41 540.82 405.41 533.39C405.41 525.96 399.39 519.94 391.96 519.94C357 519.94 77.37 519.94 42.42 519.94C33.86 519.94 26.91 512.98 26.91 504.43C26.91 495.87 33.86 488.91 42.42 488.91C90.94 488.91 260.75 488.91 285.01 488.91ZM425.65 257.3C399.29 257.3 389.47 263.4 379.06 269.85C359.48 282 337.97 288.08 316.43 288.08C294.78 288.08 273.11 281.95 253.32 269.68C243.5 263.59 233.34 257.29 207.01 257.29C183.8 257.29 166.46 262.13 160.18 266.63C154.14 270.96 145.73 269.56 141.41 263.52C137.08 257.48 138.47 249.07 144.52 244.75C155.99 236.54 176.46 231.35 200.16 230.51C203.74 169.54 254.47 121.03 316.33 121.03C378.18 121.03 428.91 169.54 432.49 230.51C456.19 231.35 476.66 236.54 488.13 244.75C494.18 249.07 495.57 257.48 491.25 263.52C486.92 269.56 478.52 270.96 472.48 266.63C466.19 262.13 448.86 257.3 425.65 257.3ZM316.33 147.94C268.95 147.94 230.05 184.97 227.05 231.6C245.46 234.06 256.5 239.99 267.49 246.81C298.09 265.78 334.49 265.84 364.87 246.99C375.98 240.1 387.12 234.1 405.6 231.61C402.61 184.97 363.71 147.94 316.33 147.94ZM640 504.07C640 558.41 595.79 602.62 541.44 602.62C487.1 602.62 442.88 558.41 442.88 504.07C442.88 495.48 442.88 426.77 442.88 418.18C442.88 363.83 487.1 319.62 541.44 319.62C541.44 319.62 541.44 319.62 541.44 319.62C595.79 319.62 640 363.83 640 418.18C640 435.36 640 495.48 640 504.07ZM541.44 346.53C541.44 346.53 541.44 346.53 541.44 346.53C501.93 346.53 469.79 378.67 469.79 418.18C469.79 426.77 469.79 495.48 469.79 504.07C469.79 543.57 501.93 575.71 541.44 575.71C580.95 575.71 613.09 543.57 613.09 504.07C613.09 498.34 613.09 469.71 613.09 418.18C591.66 370.41 567.78 346.53 541.44 346.53ZM527.98 391.38C527.98 394.71 527.98 421.31 527.98 424.64C527.98 432.07 534.01 438.09 541.44 438.09C548.87 438.09 554.89 432.07 554.89 424.64C554.89 421.31 554.89 394.71 554.89 391.38C554.89 383.95 548.87 377.93 541.44 377.93C534.01 377.93 527.98 383.95 527.98 391.38Z" id="j12RWrf6fF"></path></defs><g><g><g><use xlink:href="#j12RWrf6fF" opacity="1" fill="#ffffff" fill-opacity="1"></use><g><use xlink:href="#j12RWrf6fF" opacity="1" fill-opacity="0" stroke="#000000" stroke-width="1" stroke-opacity="0"></use></g></g></g></g></svg>