<?xml version="1.0" encoding="UTF-8" standalone="no"?>
<!DOCTYPE svg PUBLIC "-//W3C//DTD SVG 1.1//EN" "http://www.w3.org/Graphics/SVG/1.1/DTD/svg11.dtd">
<svg version="1.1" xmlns="http://www.w3.org/2000/svg" xmlns:xlink="http://www.w3.org/1999/xlink" preserveAspectRatio="xMidYMid meet" viewBox="0 0 640 640" width="640" height="640"><defs><path d="M418.02 0C408.35 0 408.35 15 418.02 15C420.22 15 437.84 15 440.04 15C462.77 15 481.27 33.43 481.27 56.08C481.27 73.44 481.27 212.32 481.27 229.68C481.27 252.33 462.77 270.76 440.04 270.76C437.54 270.76 417.57 270.76 415.07 270.76C413.42 270.76 411.82 271.3 410.51 272.3C407.46 274.64 392.19 286.32 364.7 307.35C364.7 289.9 364.7 280.2 364.7 278.26C364.7 274.12 361.34 270.76 357.2 270.76C348.07 270.76 275.03 270.76 265.91 270.76C258.43 270.76 251.24 268.79 244.91 265.04C244.91 256.61 244.91 189.25 244.91 180.83C244.91 165.06 236.87 151.12 224.68 142.88C224.68 134.2 224.68 64.76 224.68 56.08C224.68 33.43 243.17 15 265.91 15C276.42 15 360.51 15 371.02 15C380.69 15 380.69 0 371.02 0C360.51 0 276.42 0 265.91 0C234.9 0 209.67 25.16 209.67 56.08C209.67 64.1 209.67 128.27 209.67 136.29C206.24 135.47 202.66 135.02 198.98 135.02C185.25 135.02 75.39 135.02 61.66 135.02C36.34 135.02 15.73 155.57 15.73 180.83C15.73 182.45 15.73 195.41 15.73 197.03C15.73 206.7 30.74 206.7 30.74 197.03C30.74 195.41 30.74 182.45 30.74 180.83C30.74 163.84 44.61 150.02 61.66 150.02C75.39 150.02 185.25 150.02 198.98 150.02C216.03 150.02 229.91 163.84 229.91 180.83C229.91 189.55 229.91 259.3 229.91 268.02C229.82 268.68 229.82 269.35 229.91 270.01C229.91 274.78 229.91 312.96 229.91 317.73C229.91 318.67 229.85 319.61 229.76 320.54C228.22 320.54 215.84 320.54 214.29 320.54C197.25 320.54 183.04 332.85 180.09 349.02C179.41 349.27 178.76 349.63 178.15 350.1C175.91 351.83 164.73 360.46 144.6 376C144.6 364.02 144.6 357.37 144.6 356.04C144.6 351.89 141.24 348.54 137.1 348.54C129.55 348.54 69.21 348.54 61.66 348.54C44.61 348.54 30.74 334.72 30.74 317.73C30.74 310.16 30.74 249.6 30.74 242.03C30.74 232.36 15.73 232.36 15.73 242.03C15.73 249.6 15.73 310.16 15.73 317.73C15.73 342.99 36.34 363.54 61.66 363.54C66.19 363.54 88.84 363.54 129.6 363.54C129.6 380.18 129.6 389.42 129.6 391.27C129.6 397.29 136.9 400.9 141.68 397.21C144.21 395.26 156.82 385.52 179.52 367.99C179.52 418.63 179.52 446.76 179.52 452.38C179.52 471.51 195.12 487.07 214.3 487.07C217.36 487.07 232.71 487.07 260.33 487.07C260.33 497.57 260.33 503.41 260.33 504.57C260.33 510.59 267.63 514.2 272.41 510.51C274.44 508.95 284.56 501.13 302.77 487.07C308.15 487.07 311.14 487.07 311.74 487.07C330.91 487.07 346.51 471.51 346.51 452.38C346.51 451.05 346.51 440.4 346.51 439.06C346.51 429.39 331.51 429.39 331.51 439.06C331.51 440.4 331.51 451.05 331.51 452.38C331.51 463.24 322.64 472.07 311.74 472.07C310.59 472.07 301.37 472.07 300.21 472.07C298.55 472.07 296.94 472.62 295.63 473.63C294.28 474.68 287.51 479.9 275.33 489.3C275.33 483.46 275.33 480.22 275.33 479.57C275.33 475.42 271.97 472.07 267.83 472.07C262.47 472.07 219.65 472.07 214.29 472.07C203.39 472.07 194.53 463.23 194.53 452.38C194.53 442.67 194.53 364.95 194.53 355.23C194.53 344.38 203.39 335.55 214.29 335.55C224.04 335.55 302 335.55 311.74 335.55C322.64 335.55 331.51 344.38 331.51 355.23C331.51 358.91 331.51 388.37 331.51 392.06C331.51 401.73 346.51 401.73 346.51 392.06C346.51 388.37 346.51 358.92 346.51 355.23C346.51 336.11 330.91 320.55 311.74 320.55C305.05 320.55 251.51 320.55 244.82 320.55C244.88 319.61 244.91 281.72 244.91 281.72C251.52 284.38 258.61 285.76 265.91 285.76C271.49 285.76 299.42 285.76 349.7 285.76C349.7 307.82 349.7 320.08 349.7 322.53C349.7 328.53 356.97 332.14 361.76 328.49C365.48 325.64 384.1 311.4 417.61 285.76C431.07 285.76 438.54 285.76 440.04 285.76C471.04 285.76 496.27 260.6 496.27 229.68C496.27 212.32 496.27 73.44 496.27 56.08C496.27 25.16 471.04 0 440.04 0C440.04 0 420.22 0 418.02 0Z" id="d822PDCKg"></path><path d="M352.48 70.36C352.48 81.11 348.57 91.47 341.46 99.53C339.39 101.87 322.86 120.58 320.79 122.91C319.45 120.86 317.14 119.5 314.5 119.5C310.47 119.5 278.19 119.5 274.16 119.5C270.02 119.5 266.66 122.86 266.66 127C266.66 136.08 266.66 208.7 266.66 217.78C266.66 221.92 270.02 225.28 274.16 225.28C278.19 225.28 310.47 225.28 314.5 225.28C317.54 225.28 320.14 223.48 321.32 220.89C329.49 225.89 338.96 228.58 348.59 228.58C355.72 228.58 412.76 228.58 419.89 228.58C430.79 228.58 439.77 219.13 439.26 208.26C439.04 203.45 439.28 138.83 439.28 137.39C439.28 126.7 430.58 118 419.91 118C417.44 117.99 405.08 117.95 382.83 117.89C383.75 115.7 384.27 114.49 384.37 114.25C391.38 97.64 390.23 78.37 381.28 62.71C379.19 59.05 375.79 56.46 371.71 55.42C367.63 54.38 375.79 56.46 371.71 55.42C362.19 52.99 375.79 56.46 371.71 55.42C362.19 52.99 352.48 60.51 352.48 70.36ZM307 210.28L281.66 210.28L281.66 134.5L307 134.5L307 210.28ZM419.89 133C422.31 133 424.28 134.97 424.28 137.39C424.28 138.82 424.27 142.69 424.25 147.94C424.14 176.94 424.06 204.4 424.28 208.97C424.35 210.61 423.55 211.71 423.07 212.22C422.23 213.1 421.1 213.58 419.89 213.58C412.76 213.58 355.72 213.58 348.59 213.58C340.09 213.58 331.77 210.64 325.16 205.29C324.95 205.12 323.9 204.27 322.01 202.73L322.01 144.19C340.42 123.35 350.65 111.77 352.7 109.46C362.24 98.65 367.49 84.77 367.49 70.35C367.49 69.93 368.07 69.82 368.26 70.15C374.9 81.77 375.76 96.08 370.55 108.41C369.96 109.81 365.22 121.03 364.63 122.43C363.65 124.75 363.9 127.39 365.28 129.49C366.67 131.58 369.01 132.85 371.52 132.85C381.19 132.88 410.21 132.97 419.89 133Z" id="ciyBuN0LY"></path><path d="M79.96 260.54C75.82 260.54 72.46 263.89 72.46 268.04C72.46 272.18 75.82 275.54 79.96 275.54C81.44 275.54 88.81 275.54 102.07 275.54C99.6 290.53 98.22 298.85 97.94 300.52C97.27 304.61 100.03 308.47 104.12 309.14C104.54 309.21 104.95 309.25 105.35 309.25C108.96 309.25 112.14 306.64 112.74 302.97C113.05 301.14 114.56 292 117.28 275.54L135.37 275.54C132.9 290.53 131.52 298.86 131.24 300.52C130.57 304.61 133.33 308.47 137.42 309.15C137.84 309.21 138.25 309.25 138.65 309.25C142.26 309.25 145.44 306.64 146.05 302.97C146.35 301.14 147.86 292 150.58 275.54C168.64 275.54 178.67 275.54 180.68 275.54C184.82 275.54 188.18 272.18 188.18 268.04C188.18 263.9 184.82 260.54 180.68 260.54C178.84 260.54 169.63 260.54 153.06 260.54L156.09 242.24C170.84 242.24 179.04 242.24 180.68 242.24C184.82 242.24 188.18 238.88 188.18 234.74C188.18 230.6 184.82 227.24 180.68 227.24C179.2 227.24 171.83 227.24 158.57 227.24C161.04 212.25 162.42 203.92 162.7 202.25C163.37 198.17 160.61 194.31 156.52 193.63C152.43 192.95 148.57 195.72 147.9 199.81C147.59 201.64 146.08 210.78 143.36 227.24L125.27 227.24C127.74 212.25 129.12 203.92 129.4 202.25C130.07 198.17 127.31 194.31 123.22 193.63C119.12 192.95 115.27 195.72 114.59 199.81C114.29 201.63 112.78 210.78 110.06 227.23C92 227.23 81.97 227.23 79.96 227.23C75.82 227.23 72.46 230.59 72.46 234.74C72.46 238.88 75.82 242.24 79.96 242.24C81.8 242.24 91.01 242.24 107.58 242.24L104.55 260.54C91.44 260.54 83.24 260.54 79.96 260.54ZM122.79 242.24L140.88 242.24L137.86 260.54L119.76 260.54L122.79 242.24Z" id="b75pfB9Dgw"></path><path d="M240.73 369.26C230.37 371.78 219.92 381.46 219.92 397.42C219.92 407.36 223.54 415.98 231 423.78C237.09 430.16 245.89 436.22 259.51 443.44C260.6 444.03 261.81 444.32 263.02 444.32C264.23 444.32 265.43 444.03 266.53 443.44C290.29 430.85 306.12 418.2 306.12 397.42C306.12 381.37 295.29 371.79 284.57 369.41C276.51 367.62 268.69 369.52 262.93 374.25C256.87 369.26 248.81 367.3 240.73 369.26ZM263.02 428.29C242.36 416.92 234.92 408.63 234.92 397.42C234.92 389.08 239.75 384.94 244.27 383.84C245.1 383.64 245.99 383.52 246.91 383.52C250.31 383.52 254.05 385.09 256.35 389.56C257.67 392.1 260.32 393.68 263.17 393.62C266.03 393.56 268.61 391.89 269.81 389.29C272.24 384.09 277.35 383.18 281.32 384.06C286.05 385.11 291.12 389.17 291.12 397.42C291.12 408.63 283.68 416.92 263.02 428.29Z" id="cn62GTWmy"></path></defs><g><g><g><use xlink:href="#d822PDCKg" opacity="1" fill="#ffffff" fill-opacity="1"></use><g><use xlink:href="#d822PDCKg" opacity="1" fill-opacity="0" stroke="#000000" stroke-width="1" stroke-opacity="0"></use></g></g><g><use xlink:href="#ciyBuN0LY" opacity="1" fill="#ffffff" fill-opacity="1"></use><g><use xlink:href="#ciyBuN0LY" opacity="1" fill-opacity="0" stroke="#000000" stroke-width="1" stroke-opacity="0"></use></g></g><g><use xlink:href="#b75pfB9Dgw" opacity="1" fill="#ffffff" fill-opacity="1"></use><g><use xlink:href="#b75pfB9Dgw" opacity="1" fill-opacity="0" stroke="#000000" stroke-width="1" stroke-opacity="0"></use></g></g><g><use xlink:href="#cn62GTWmy" opacity="1" fill="#ffffff" fill-opacity="1"></use><g><use xlink:href="#cn62GTWmy" opacity="1" fill-opacity="0" stroke="#000000" stroke-width="1" stroke-opacity="0"></use></g></g></g></g></svg>