<?xml version="1.0" encoding="UTF-8" standalone="no"?>
<!DOCTYPE svg PUBLIC "-//W3C//DTD SVG 1.1//EN" "http://www.w3.org/Graphics/SVG/1.1/DTD/svg11.dtd">
<svg version="1.1" xmlns="http://www.w3.org/2000/svg" xmlns:xlink="http://www.w3.org/1999/xlink" preserveAspectRatio="xMidYMid meet" viewBox="0 0 640 640" width="640" height="640"><defs><path d="M186.03 273.1C186.03 258.52 186.03 185.6 186.03 54.35L393.07 124.9C393.07 221.03 393.07 274.43 393.07 285.11C379.48 277.67 363.88 273.1 347.06 273.1C296.32 273.1 255.05 311.78 255.05 359.35C255.05 406.91 296.32 445.6 347.06 445.6C397.81 445.6 439.08 406.91 439.08 359.35C439.08 334.39 439.08 134.76 439.08 109.81C439.08 100.73 433.03 92.65 423.94 89.56C398.64 80.94 196.2 11.94 170.9 3.32C163.81 0.88 155.99 1.87 149.85 5.9C143.68 9.94 140.03 16.53 140.03 23.56C140.03 41.09 140.03 181.33 140.03 198.86C126.43 191.42 110.83 186.85 94.02 186.85C43.27 186.85 2 225.53 2 273.1C2 320.67 43.27 359.35 94.02 359.35C144.76 359.35 186.03 320.67 186.03 273.1Z" id="a1hvgXmxJV"></path></defs><g><g><g><use xlink:href="#a1hvgXmxJV" opacity="1" fill="#ffffff" fill-opacity="1"></use><g><use xlink:href="#a1hvgXmxJV" opacity="1" fill-opacity="0" stroke="#000000" stroke-width="1" stroke-opacity="0"></use></g></g></g></g></svg>