<?xml version="1.0" encoding="UTF-8" standalone="no"?>
<!DOCTYPE svg PUBLIC "-//W3C//DTD SVG 1.1//EN" "http://www.w3.org/Graphics/SVG/1.1/DTD/svg11.dtd">
<svg version="1.1" xmlns="http://www.w3.org/2000/svg" xmlns:xlink="http://www.w3.org/1999/xlink" preserveAspectRatio="xMidYMid meet" viewBox="0 0 640 640" width="640" height="640"><defs><path d="M364.16 426.67C355.33 426.67 348.16 419.5 348.16 410.67C348.16 401.83 355.33 394.67 364.16 394.67C369.36 394.67 395.34 394.67 442.11 394.67L473.15 309.33L38.83 309.33L69.87 394.67C116.65 394.67 142.64 394.67 147.84 394.67C156.67 394.67 163.84 401.83 163.84 410.67C163.84 419.5 156.67 426.67 147.84 426.67C138.92 426.67 67.58 426.67 58.67 426.67C51.95 426.67 45.93 422.46 43.63 416.13C39.36 404.39 5.23 310.53 0.96 298.79C-0.81 293.89 -0.11 288.43 2.9 284.14C5.89 279.87 10.77 277.33 16 277.33C64 277.33 448 277.33 496 277.33C501.23 277.33 506.11 279.87 509.1 284.16C512.11 288.43 512.81 293.91 511.04 298.82C506.77 310.55 472.64 404.42 468.37 416.15C466.07 422.46 460.05 426.67 453.33 426.67C435.5 426.67 373.08 426.67 364.16 426.67Z" id="e3iXJO4INi"></path><path d="M344.23 511.81C335.51 510.46 329.51 502.29 330.86 493.57C332.09 485.55 338.26 445.47 349.35 373.33L162.65 373.33C173.74 445.47 179.91 485.55 181.14 493.57C182.49 502.31 176.49 510.46 167.77 511.81C159.04 513.24 150.85 507.18 149.53 498.43C147.39 484.57 130.33 373.63 128.19 359.77C127.49 355.16 128.81 350.44 131.86 346.9C134.91 343.36 139.33 341.33 144 341.33C166.4 341.33 345.6 341.33 368 341.33C372.67 341.33 377.11 343.38 380.14 346.92C383.17 350.46 384.51 355.16 383.81 359.79C381.67 373.65 364.61 484.59 362.47 498.45C361.28 506.35 354.45 512 346.69 512C345.88 512 345.07 511.94 344.23 511.81Z" id="d215vGWFsx"></path><path d="M464 288C464 245.78 441.43 205.82 405.1 183.7C397.55 179.09 395.16 169.26 399.77 161.71C404.37 154.15 414.21 151.77 421.76 156.37C467.54 184.28 495.98 234.71 495.98 288C496 296.83 488.83 304 480 304C471.17 304 464 296.83 464 288Z" id="a7WDXnsKSO"></path><path d="M394.67 128C376.99 128 362.67 142.33 362.67 160C362.67 177.67 376.99 192 394.67 192C412.34 192 426.67 177.67 426.67 160C426.67 142.33 412.34 128 394.67 128Z" id="alFA1IJnB"></path><path d="M170.67 85.33C170.67 38.27 208.94 0 256 0C303.06 0 341.33 38.27 341.33 85.33C341.33 132.39 303.06 170.67 256 170.67C208.94 170.67 170.67 132.39 170.67 85.33ZM202.67 85.33C202.67 114.73 226.58 138.67 256 138.67C285.42 138.67 309.33 114.73 309.33 85.33C309.33 55.94 285.42 32 256 32C226.58 32 202.67 55.94 202.67 85.33Z" id="g4RTQEKseL"></path><path d="M400 293.33C400 255.1 368.9 224 330.67 224C315.73 224 196.27 224 181.33 224C143.1 224 112 255.1 112 293.33C112 302.17 104.83 309.33 96 309.33C87.17 309.33 80 302.17 80 293.33C80 237.46 125.46 192 181.33 192C196.27 192 315.73 192 330.67 192C386.54 192 432 237.46 432 293.33C432 302.17 424.83 309.33 416 309.33C407.17 309.33 400 302.17 400 293.33Z" id="aiF8gnQzd"></path></defs><g><g><g><use xlink:href="#e3iXJO4INi" opacity="1" fill="#ffffff" fill-opacity="1"></use><g><use xlink:href="#e3iXJO4INi" opacity="1" fill-opacity="0" stroke="#000000" stroke-width="1" stroke-opacity="0"></use></g></g><g><use xlink:href="#d215vGWFsx" opacity="1" fill="#ffffff" fill-opacity="1"></use><g><use xlink:href="#d215vGWFsx" opacity="1" fill-opacity="0" stroke="#000000" stroke-width="1" stroke-opacity="0"></use></g></g><g><use xlink:href="#a7WDXnsKSO" opacity="1" fill="#ffffff" fill-opacity="1"></use><g><use xlink:href="#a7WDXnsKSO" opacity="1" fill-opacity="0" stroke="#000000" stroke-width="1" stroke-opacity="0"></use></g></g><g><use xlink:href="#alFA1IJnB" opacity="1" fill="#ffffff" fill-opacity="1"></use><g><use xlink:href="#alFA1IJnB" opacity="1" fill-opacity="0" stroke="#000000" stroke-width="1" stroke-opacity="0"></use></g></g><g><use xlink:href="#g4RTQEKseL" opacity="1" fill="#ffffff" fill-opacity="1"></use><g><use xlink:href="#g4RTQEKseL" opacity="1" fill-opacity="0" stroke="#000000" stroke-width="1" stroke-opacity="0"></use></g></g><g><use xlink:href="#aiF8gnQzd" opacity="1" fill="#ffffff" fill-opacity="1"></use><g><use xlink:href="#aiF8gnQzd" opacity="1" fill-opacity="0" stroke="#000000" stroke-width="1" stroke-opacity="0"></use></g></g></g></g></svg>