<?xml version="1.0" encoding="UTF-8" standalone="no"?>
<!DOCTYPE svg PUBLIC "-//W3C//DTD SVG 1.1//EN" "http://www.w3.org/Graphics/SVG/1.1/DTD/svg11.dtd">
<svg version="1.1" xmlns="http://www.w3.org/2000/svg" xmlns:xlink="http://www.w3.org/1999/xlink" preserveAspectRatio="xMidYMid meet" viewBox="0 0 640 640" width="640" height="640"><defs><path d="M388.31 154.38C397.96 139.33 403.88 121.93 403.88 103.15C403.88 47.92 355.82 3 296.71 3C256.1 3 221.11 24.46 202.94 55.68C184.78 24.46 149.79 3 109.17 3C50.06 3 2 47.92 2 103.15C2 125.73 10.36 146.36 23.89 163.14C10.68 172.28 2 186.8 2 203.3C2 223.33 2 383.57 2 403.6C2 431.21 26.03 453.67 55.58 453.67C87.73 453.67 344.94 453.67 377.09 453.67C406.64 453.67 430.67 431.21 430.67 403.6C430.67 399.2 430.67 377.19 430.67 337.57L537.84 387.65L537.84 212.39L430.67 262.46L430.67 203.3C418.53 173.91 404.41 157.6 388.31 154.38ZM350.3 103.15C350.3 130.77 326.26 153.22 296.71 153.22C267.16 153.22 243.13 130.77 243.13 103.15C243.13 75.53 267.16 53.07 296.71 53.07C326.26 53.07 350.3 75.53 350.3 103.15ZM162.75 103.15C162.75 130.77 138.72 153.22 109.17 153.22C79.62 153.22 55.58 130.77 55.58 103.15C55.58 75.53 79.62 53.07 109.17 53.07C138.72 53.07 162.75 75.53 162.75 103.15Z" id="c3cWV60Rm9"></path></defs><g><g><g><use xlink:href="#c3cWV60Rm9" opacity="1" fill="#ffffff" fill-opacity="1"></use><g><use xlink:href="#c3cWV60Rm9" opacity="1" fill-opacity="0" stroke="#ffffff" stroke-width="1" stroke-opacity="0"></use></g></g></g></g></svg>